<svg xmlns="http://www.w3.org/2000/svg" viewBox="0 0 1280 720">
  <defs>
    <linearGradient id="bg" x1="0%" y1="0%" x2="100%" y2="100%">
      <stop offset="0%" style="stop-color:#f8fafc"/>
      <stop offset="100%" style="stop-color:#e2e8f0"/>
    </linearGradient>
  </defs>
  
  <!-- Background -->
  <rect width="1280" height="720" fill="url(#bg)"/>
  
  <!-- Sidebar -->
  <rect x="0" y="0" width="220" height="720" fill="#1f2937"/>
  <rect x="20" y="20" width="180" height="40" rx="8" fill="#374151"/>
  <text x="60" y="48" font-family="Arial" font-size="18" font-weight="bold" fill="#667eea">Paynes</text>
  
  <!-- Sidebar items -->
  <rect x="20" y="80" width="180" height="40" rx="8" fill="#667eea"/>
  <text x="50" y="106" font-family="Arial" font-size="14" fill="white">Dashboard</text>
  
  <text x="50" y="150" font-family="Arial" font-size="14" fill="#9ca3af">Платежи</text>
  <text x="50" y="190" font-family="Arial" font-size="14" fill="#9ca3af">Обмен валют</text>
  <text x="50" y="230" font-family="Arial" font-size="14" fill="#9ca3af">Кредиты</text>
  <text x="50" y="270" font-family="Arial" font-size="14" fill="#9ca3af">Отчёты</text>
  
  <!-- Header -->
  <rect x="220" y="0" width="1060" height="60" fill="white"/>
  <circle cx="1220" cy="30" r="18" fill="#667eea"/>
  <text x="1220" y="35" font-family="Arial" font-size="14" fill="white" text-anchor="middle">A</text>
  
  <!-- KPI Cards -->
  <rect x="250" y="90" width="230" height="100" rx="12" fill="white" stroke="#e5e7eb"/>
  <text x="270" y="125" font-family="Arial" font-size="12" fill="#6b7280">Платежей сегодня</text>
  <text x="270" y="160" font-family="Arial" font-size="28" font-weight="bold" fill="#1f2937">245</text>
  
  <rect x="500" y="90" width="230" height="100" rx="12" fill="white" stroke="#e5e7eb"/>
  <text x="520" y="125" font-family="Arial" font-size="12" fill="#6b7280">Общая сумма</text>
  <text x="520" y="160" font-family="Arial" font-size="28" font-weight="bold" fill="#1f2937">$1.2M</text>
  
  <rect x="750" y="90" width="230" height="100" rx="12" fill="white" stroke="#e5e7eb"/>
  <text x="770" y="125" font-family="Arial" font-size="12" fill="#6b7280">Активных кассиров</text>
  <text x="770" y="160" font-family="Arial" font-size="28" font-weight="bold" fill="#1f2937">18</text>
  
  <rect x="1000" y="90" width="230" height="100" rx="12" fill="white" stroke="#e5e7eb"/>
  <text x="1020" y="125" font-family="Arial" font-size="12" fill="#6b7280">В ожидании</text>
  <text x="1020" y="160" font-family="Arial" font-size="28" font-weight="bold" fill="#f59e0b">12</text>
  
  <!-- Table -->
  <rect x="250" y="220" width="980" height="480" rx="12" fill="white" stroke="#e5e7eb"/>
  <text x="280" y="260" font-family="Arial" font-size="16" font-weight="bold" fill="#1f2937">Последние транзакции</text>
  
  <!-- Table header -->
  <rect x="250" y="280" width="980" height="40" fill="#f9fafb"/>
  <text x="280" y="306" font-family="Arial" font-size="12" fill="#6b7280">Дата</text>
  <text x="420" y="306" font-family="Arial" font-size="12" fill="#6b7280">Кассир</text>
  <text x="600" y="306" font-family="Arial" font-size="12" fill="#6b7280">Тип</text>
  <text x="800" y="306" font-family="Arial" font-size="12" fill="#6b7280">Сумма</text>
  <text x="1000" y="306" font-family="Arial" font-size="12" fill="#6b7280">Статус</text>
  
  <!-- Table rows -->
  <text x="280" y="350" font-family="Arial" font-size="13" fill="#374151">09.01.2026</text>
  <text x="420" y="350" font-family="Arial" font-size="13" fill="#374151">Алишер К.</text>
  <text x="600" y="350" font-family="Arial" font-size="13" fill="#374151">Paynet</text>
  <text x="800" y="350" font-family="Arial" font-size="13" fill="#374151">150 000 UZS</text>
  <rect x="1000" y="335" width="80" height="24" rx="12" fill="#dcfce7"/>
  <text x="1040" y="352" font-family="Arial" font-size="11" fill="#16a34a" text-anchor="middle">Завершён</text>
  
  <text x="280" y="400" font-family="Arial" font-size="13" fill="#374151">09.01.2026</text>
  <text x="420" y="400" font-family="Arial" font-size="13" fill="#374151">Мадина Р.</text>
  <text x="600" y="400" font-family="Arial" font-size="13" fill="#374151">Click</text>
  <text x="800" y="400" font-family="Arial" font-size="13" fill="#374151">85 000 UZS</text>
  <rect x="1000" y="385" width="80" height="24" rx="12" fill="#dcfce7"/>
  <text x="1040" y="402" font-family="Arial" font-size="11" fill="#16a34a" text-anchor="middle">Завершён</text>
  
  <text x="280" y="450" font-family="Arial" font-size="13" fill="#374151">09.01.2026</text>
  <text x="420" y="450" font-family="Arial" font-size="13" fill="#374151">Бахтиёр У.</text>
  <text x="600" y="450" font-family="Arial" font-size="13" fill="#374151">Payme</text>
  <text x="800" y="450" font-family="Arial" font-size="13" fill="#374151">220 000 UZS</text>
  <rect x="1000" y="435" width="80" height="24" rx="12" fill="#fef3c7"/>
  <text x="1040" y="452" font-family="Arial" font-size="11" fill="#d97706" text-anchor="middle">Ожидание</text>
</svg>
