<?xml version="1.0" encoding="utf-8"?>
<!-- Generator: Adobe Illustrator 21.0.0, SVG Export Plug-In . SVG Version: 6.00 Build 0)  -->
<svg version="1.1" id="Layer_1" xmlns="http://www.w3.org/2000/svg" xmlns:xlink="http://www.w3.org/1999/xlink" x="0px" y="0px"
	 width="252px" height="386px" viewBox="0 0 252 386" style="enable-background:new 0 0 252 386;" xml:space="preserve">
<style type="text/css">
	.st0{fill:#2B2A29;}
	.st1{fill:#017663;}
	.st2{fill:#1FEBE0;}
	.st3{fill:#007B67;}
	.st4{fill:#007E6B;}
	.st5{fill:#01806D;}
	.st6{fill:#019682;}
	.st7{fill:#00A795;}
	.st8{fill:#01A38E;}
	.st9{fill:#03BDAF;}
	.st10{fill:#06C9BB;}
	.st11{fill:#04C4B5;}
	.st12{fill:#02B4A4;}
	.st13{fill:#01AC9A;}
	.st14{fill:#03C6B6;}
	.st15{fill:#06CEC1;}
	.st16{fill:#04C3B3;}
	.st17{fill:#08D4C9;}
	.st18{fill:#009079;}
	.st19{fill:#FCFCFC;}
	.st20{fill:#FFFFFF;}
</style>
<g id="Слой_x0020_1">
	<g id="_2773538709776">
		<polygon class="st0" points="126.5,210.7 135.7,215.9 144.8,221.2 144.8,231.8 144.8,242.4 135.7,247.6 126.5,252.9 117.4,247.6 
			108.2,242.4 108.2,231.8 108.2,221.2 117.4,215.9 		"/>
		<polygon class="st1" points="126.5,211.6 135.3,216.6 144,221.7 144,231.8 144,241.9 135.3,246.9 126.5,252 117.8,246.9 
			109,241.9 109,231.8 109,221.7 117.8,216.6 		"/>
		<polygon class="st2" points="126.5,210.7 126.5,211.6 109,221.7 109,241.9 108.2,242.4 108.2,221.2 		"/>
		<polygon class="st0" points="174.6,185 183.7,190.3 192.9,195.6 192.9,206.2 192.9,216.7 183.7,222 174.6,227.3 165.5,222 
			156.3,216.7 156.3,206.2 156.3,195.6 165.5,190.3 		"/>
		<polygon class="st1" points="174.6,186 183.3,191 192.1,196.1 192.1,206.2 192.1,216.3 183.3,221.3 174.6,226.4 165.8,221.3 
			157.1,216.3 157.1,206.2 157.1,196.1 165.8,191 		"/>
		<polygon class="st2" points="174.6,185 174.6,186 157.1,196.1 157.1,216.3 156.3,216.7 156.3,195.6 		"/>
		<polygon class="st0" points="219.1,161.7 228.2,167 237.4,172.3 237.4,182.8 237.4,193.4 228.2,198.7 219.1,203.9 209.9,198.7 
			200.8,193.4 200.8,182.8 200.8,172.3 209.9,167 		"/>
		<polygon class="st3" points="219.1,162.6 227.8,167.7 236.6,172.7 236.6,182.8 236.6,192.9 227.8,198 219.1,203 210.3,198 
			201.6,192.9 201.6,182.8 201.6,172.7 210.3,167.7 		"/>
		<polygon class="st2" points="219.1,161.7 219.1,162.6 201.6,172.7 201.6,192.9 200.8,193.4 200.8,172.3 		"/>
		<polygon class="st0" points="32.1,161.7 41.2,167 50.4,172.3 50.4,182.8 50.4,193.4 41.2,198.7 32.1,203.9 22.9,198.7 13.8,193.4 
			13.8,182.8 13.8,172.3 22.9,167 		"/>
		<polygon class="st4" points="32.1,162.6 40.8,167.7 49.6,172.7 49.6,182.8 49.6,192.9 40.8,198 32.1,203 23.3,198 14.6,192.9 
			14.6,182.8 14.6,172.7 23.3,167.7 		"/>
		<polygon class="st2" points="32.1,161.7 32.1,162.6 14.6,172.7 14.6,192.9 13.8,193.4 13.8,172.3 		"/>
		<polygon class="st0" points="80.1,185.2 89.2,190.5 98.4,195.8 98.4,206.4 98.4,216.9 89.2,222.2 80.1,227.5 70.9,222.2 
			61.8,216.9 61.8,206.4 61.8,195.8 70.9,190.5 		"/>
		<polygon class="st1" points="80.1,186.2 88.8,191.2 97.6,196.3 97.6,206.4 97.6,216.5 88.8,221.5 80.1,226.6 71.3,221.5 
			62.6,216.5 62.6,206.4 62.6,196.3 71.3,191.2 		"/>
		<polygon class="st2" points="80.1,185.2 80.1,186.2 62.6,196.3 62.6,216.5 61.8,216.9 61.8,195.8 		"/>
		<polygon class="st0" points="127,158.1 134.9,162.7 142.9,167.3 142.9,176.5 142.9,185.7 134.9,190.3 127,194.9 119,190.3 
			111,185.7 111,176.5 111,167.3 119,162.7 		"/>
		<polygon class="st5" points="127,158.9 134.6,163.3 142.2,167.7 142.2,176.5 142.2,185.3 134.6,189.7 127,194.1 119.4,189.7 
			111.7,185.3 111.7,176.5 111.7,167.7 119.4,163.3 		"/>
		<polygon class="st2" points="127,158.1 127,158.9 111.7,167.7 111.7,185.3 111,185.7 111,167.3 		"/>
		<polygon class="st0" points="175,131.9 182.6,136.3 190.2,140.7 190.2,149.5 190.2,158.2 182.6,162.6 175,167 167.4,162.6 
			159.8,158.2 159.8,149.5 159.8,140.7 167.4,136.3 		"/>
		<polygon class="st6" points="175,132.7 182.2,136.9 189.5,141.1 189.5,149.5 189.5,157.9 182.2,162 175,166.2 167.7,162 
			160.4,157.9 160.4,149.5 160.4,141.1 167.7,136.9 		"/>
		<polygon class="st2" points="175,131.9 175,132.7 160.4,141.1 160.4,157.9 159.8,158.2 159.8,140.7 		"/>
		<polygon class="st0" points="219.6,112.2 227.2,116.6 234.8,120.9 234.8,129.7 234.8,138.5 227.2,142.9 219.6,147.3 212,142.9 
			204.4,138.5 204.4,129.7 204.4,120.9 212,116.6 		"/>
		<polygon class="st7" points="219.6,113 226.9,117.1 234.2,121.3 234.2,129.7 234.2,138.1 226.9,142.3 219.6,146.5 212.4,142.3 
			205.1,138.1 205.1,129.7 205.1,121.3 212.4,117.1 		"/>
		<polygon class="st2" points="219.6,112.2 219.6,113 205.1,121.3 205.1,138.1 204.4,138.5 204.4,120.9 		"/>
		<polygon class="st2" points="33.2,112.2 33.2,113 18.7,121.3 18.7,138.1 18,138.5 18,120.9 		"/>
		<polygon class="st0" points="32.1,112.5 40.2,117.2 48.4,121.9 48.4,131.3 48.4,140.7 40.2,145.4 32.1,150.1 23.9,145.4 
			15.8,140.7 15.8,131.3 15.8,121.9 23.9,117.2 		"/>
		<polygon class="st8" points="32.1,113.3 39.9,117.8 47.7,122.3 47.7,131.3 47.7,140.3 39.9,144.8 32.1,149.3 24.3,144.8 
			16.5,140.3 16.5,131.3 16.5,122.3 24.3,117.8 		"/>
		<polygon class="st2" points="32.1,112.5 32.1,113.3 16.5,122.3 16.5,140.3 15.8,140.7 15.8,121.9 		"/>
		<polygon class="st0" points="32.1,71.2 38.9,75.1 45.8,79.1 45.8,87 45.8,94.9 38.9,98.9 32.1,102.9 25.2,98.9 18.4,94.9 18.4,87 
			18.4,79.1 25.2,75.1 		"/>
		<polygon class="st9" points="32.1,71.9 38.6,75.6 45.2,79.4 45.2,87 45.2,94.6 38.6,98.4 32.1,102.2 25.5,98.4 19,94.6 19,87 
			19,79.4 25.5,75.6 		"/>
		<polygon class="st2" points="32.1,71.2 32.1,71.9 19,79.4 19,94.6 18.4,94.9 18.4,79.1 		"/>
		<polygon class="st0" points="219.1,71.2 225.9,75.1 232.8,79.1 232.8,87 232.8,94.9 225.9,98.9 219.1,102.9 212.2,98.9 
			205.4,94.9 205.4,87 205.4,79.1 212.2,75.1 		"/>
		<polygon class="st10" points="219.1,71.9 225.6,75.6 232.2,79.4 232.2,87 232.2,94.6 225.6,98.4 219.1,102.2 212.5,98.4 206,94.6 
			206,87 206,79.4 212.5,75.6 		"/>
		<polygon class="st2" points="219.1,71.2 219.1,71.9 206,79.4 206,94.6 205.4,94.9 205.4,79.1 		"/>
		<polygon class="st0" points="174.8,83.8 181.1,87.4 187.4,91 187.4,98.3 187.4,105.6 181.1,109.2 174.8,112.9 168.5,109.2 
			162.2,105.6 162.2,98.3 162.2,91 168.5,87.4 		"/>
		<polygon class="st11" points="174.8,84.4 180.8,87.9 186.8,91.4 186.8,98.3 186.8,105.3 180.8,108.8 174.8,112.2 168.8,108.8 
			162.7,105.3 162.7,98.3 162.7,91.4 168.8,87.9 		"/>
		<polygon class="st2" points="174.8,83.8 174.8,84.4 162.7,91.4 162.7,105.3 162.2,105.6 162.2,91 		"/>
		<polygon class="st0" points="79.5,83.8 85.8,87.4 92.1,91 92.1,98.3 92.1,105.6 85.8,109.2 79.5,112.9 73.2,109.2 66.9,105.6 
			66.9,98.3 66.9,91 73.2,87.4 		"/>
		<polygon class="st12" points="79.5,84.4 85.5,87.9 91.6,91.4 91.6,98.3 91.6,105.3 85.5,108.8 79.5,112.2 73.5,108.8 67.5,105.3 
			67.5,98.3 67.5,91.4 73.5,87.9 		"/>
		<polygon class="st2" points="79.5,83.8 79.5,84.4 67.5,91.4 67.5,105.3 66.9,105.6 66.9,91 		"/>
		<polygon class="st0" points="127,105.2 134.4,109.5 141.9,113.8 141.9,122.4 141.9,131 134.4,135.3 127,139.7 119.5,135.3 
			112,131 112,122.4 112,113.8 119.5,109.5 		"/>
		<polygon class="st13" points="127,105.9 134.1,110.1 141.2,114.2 141.2,122.4 141.2,130.6 134.1,134.8 127,138.9 119.8,134.8 
			112.7,130.6 112.7,122.4 112.7,114.2 119.8,110.1 		"/>
		<polygon class="st2" points="127,105.2 127,105.9 112.7,114.2 112.7,130.6 112,131 112,113.8 		"/>
		<polygon class="st0" points="127,56.9 133.8,60.9 140.7,64.8 140.7,72.7 140.7,80.7 133.8,84.6 127,88.6 120.1,84.6 113.3,80.7 
			113.3,72.7 113.3,64.8 120.1,60.9 		"/>
		<polygon class="st14" points="127,57.6 133.5,61.4 140.1,65.2 140.1,72.7 140.1,80.3 133.5,84.1 127,87.9 120.4,84.1 113.9,80.3 
			113.9,72.7 113.9,65.2 120.4,61.4 		"/>
		<polygon class="st2" points="127,56.9 127,57.6 113.9,65.2 113.9,80.3 113.3,80.7 113.3,64.8 		"/>
		<polygon class="st0" points="127,12.9 132.9,16.3 138.8,19.7 138.8,26.6 138.8,33.4 132.9,36.9 127,40.3 121,36.9 115.1,33.4 
			115.1,26.6 115.1,19.7 121,16.3 		"/>
		<polygon class="st15" points="127,13.5 132.7,16.8 138.3,20 138.3,26.6 138.3,33.2 132.7,36.4 127,39.7 121.3,36.4 115.6,33.2 
			115.6,26.6 115.6,20 121.3,16.8 		"/>
		<polygon class="st2" points="127,12.9 127,13.5 115.6,20 115.6,33.2 115.1,33.4 115.1,19.7 		"/>
		<polygon class="st0" points="79.9,36.2 85.8,39.6 91.8,43.1 91.8,49.9 91.8,56.8 85.8,60.2 79.9,63.7 73.9,60.2 68,56.8 68,49.9 
			68,43.1 73.9,39.6 		"/>
		<polygon class="st16" points="79.9,36.8 85.6,40.1 91.2,43.4 91.2,49.9 91.2,56.5 85.6,59.8 79.9,63.1 74.2,59.8 68.5,56.5 
			68.5,49.9 68.5,43.4 74.2,40.1 		"/>
		<polygon class="st2" points="79.9,36.2 79.9,36.8 68.5,43.4 68.5,56.5 68,56.8 68,43.1 		"/>
		<polygon class="st0" points="174.6,37.4 180.5,40.8 186.5,44.2 186.5,51.1 186.5,57.9 180.5,61.3 174.6,64.8 168.7,61.3 
			162.7,57.9 162.7,51.1 162.7,44.2 168.7,40.8 		"/>
		<polygon class="st17" points="174.6,37.9 180.3,41.2 185.9,44.5 185.9,51.1 185.9,57.6 180.3,60.9 174.6,64.2 168.9,60.9 
			163.2,57.6 163.2,51.1 163.2,44.5 168.9,41.2 		"/>
		<polygon class="st2" points="174.6,37.4 174.6,37.9 163.2,44.5 163.2,57.6 162.7,57.9 162.7,44.2 		"/>
		<polygon class="st0" points="79.5,131.9 87.1,136.3 94.7,140.7 94.7,149.5 94.7,158.2 87.1,162.6 79.5,167 71.9,162.6 64.3,158.2 
			64.3,149.5 64.3,140.7 71.9,136.3 		"/>
		<polygon class="st18" points="79.5,132.7 86.8,136.9 94,141.1 94,149.5 94,157.9 86.8,162 79.5,166.2 72.2,162 65,157.9 65,149.5 
			65,141.1 72.2,136.9 		"/>
		<polygon class="st2" points="79.5,131.9 79.5,132.7 65,141.1 65,157.9 64.3,158.2 64.3,140.7 		"/>
		<g>
			<path class="st19" d="M9.8,306.6l9-21.4h3.1l9,21.4h-4.4l-2.4-5.6l0,0h-7.7l0,0l-2.4,5.6H9.8z M17.8,297.3L17.8,297.3h5l0,0
				l-2.5-6.6l0,0L17.8,297.3z M20.4,283.4L20.4,283.4L20.4,283.4z M27.6,306.6L27.6,306.6L27.6,306.6z M9.6,284.7L9.6,284.7
				L9.6,284.7z"/>
		</g>
		<path id="_x31_" class="st19" d="M47,292.1v-6.9h3.9v21.4h-3.6v-2c-1.1,1.6-2.8,2.5-5.1,2.5c-2.2,0-4.1-0.8-5.8-2.4
			c-1.6-1.6-2.4-3.7-2.4-6.1s0.8-4.4,2.4-6c1.6-1.7,3.5-2.5,5.8-2.5C44.2,290.1,45.9,290.7,47,292.1z M37.8,298.5
			c0,1.5,0.5,2.7,1.5,3.7c1,0.9,2.1,1.4,3.3,1.4c1.4,0,2.5-0.5,3.3-1.5c0.9-1,1.3-2.2,1.3-3.4c0-1.4-0.5-2.6-1.4-3.5
			c-0.9-1-2.1-1.5-3.5-1.5c-1.3,0-2.4,0.5-3.3,1.6C38.3,296.2,37.8,297.3,37.8,298.5z"/>
		<g>
			<path id="_x32_" class="st19" d="M55.7,306.6v-21.4h3.9v21.4H55.7z M57.6,283.4L57.6,283.4L57.6,283.4z M57.6,306.6L57.6,306.6
				L57.6,306.6z"/>
		</g>
		<g>
			<path id="_x33_" class="st19" d="M64.7,290.6h3.9v16h-3.9V290.6z M64.7,285.3h3.9v3.5h-3.9V285.3z M66.6,306.6L66.6,306.6
				L66.6,306.6z"/>
		</g>
		<g>
			<path id="_x34_" class="st19" d="M72.4,290.6h4.4l3.7,10.2l0,0l3.8-10.2h4.4L79.6,312h-4.1l2.9-6.9l0,0L72.4,290.6z M80.6,288.2
				L80.6,288.2L80.6,288.2z M72.2,290.1L72.2,290.1L72.2,290.1z"/>
		</g>
		<g>
			<path id="_x35_" class="st19" d="M108.7,290.6v16h-3.5v-2c-0.5,0.6-1.2,1.2-2.3,1.7c-1.1,0.5-2.2,0.7-3.3,0.7
				c-2.2,0-4-0.8-5.5-2.4s-2.2-3.6-2.2-6s0.7-4.5,2.2-6.1s3.4-2.5,5.7-2.5c2.3,0,4.1,0.9,5.4,2.7v-2.2L108.7,290.6L108.7,290.6z
				 M100.3,293.6c-1.2,0-2.3,0.5-3.3,1.4c-0.9,0.9-1.4,2.2-1.4,3.6s0.5,2.5,1.4,3.5s2,1.4,3.3,1.4c1.4,0,2.5-0.5,3.4-1.4
				c0.9-1,1.3-2.1,1.3-3.6c0-1.4-0.4-2.6-1.3-3.5C102.9,294.1,101.8,293.6,100.3,293.6z M100.5,288.2L100.5,288.2L100.5,288.2z
				 M106,306.6L106,306.6L106,306.6z"/>
		</g>
		<polygon id="_x36_" class="st19" points="128.3,301.4 128.3,301.4 134,285.2 138.2,285.2 129.8,306.6 126.6,306.6 118.3,285.2 
			122.5,285.2 		"/>
		<g>
			<path id="_x37_" class="st19" d="M158.1,290.6v16h-3.6v-2c-0.4,0.6-1.2,1.2-2.3,1.7c-1.1,0.5-2.2,0.7-3.3,0.7
				c-2.2,0-4-0.8-5.5-2.4s-2.2-3.6-2.2-6s0.7-4.5,2.2-6.1s3.4-2.5,5.7-2.5c2.2,0,4.1,0.9,5.4,2.7v-2.2L158.1,290.6L158.1,290.6z
				 M149.7,293.6c-1.2,0-2.4,0.5-3.3,1.4s-1.4,2.2-1.4,3.6s0.5,2.5,1.4,3.5s2,1.4,3.3,1.4c1.4,0,2.5-0.5,3.4-1.4
				c0.9-1,1.3-2.1,1.3-3.6c0-1.4-0.4-2.6-1.2-3.5C152.3,294.1,151.1,293.6,149.7,293.6z M149.9,288.2L149.9,288.2L149.9,288.2z
				 M155.4,306.6L155.4,306.6L155.4,306.6z"/>
		</g>
		<g>
			<path id="_x38_" class="st19" d="M162.1,306.6v-3.5l7.1-9l0,0h-6.3v-3.5h10.9v3.5l-7.1,9l0,0h7.6v3.5H162.1z M168.9,288.2
				L168.9,288.2L168.9,288.2z M161.5,290.1L161.5,290.1L161.5,290.1z"/>
		</g>
		<g>
			<path id="_x39_" class="st19" d="M178.4,290.6h3.8v16h-3.8V290.6z M178.4,285.3h3.8v3.5h-3.8V285.3z M180.3,306.6L180.3,306.6
				L180.3,306.6z"/>
		</g>
		<g>
			<path id="_x31_0" class="st19" d="M187.7,290.6h3.6v1.6c0.8-1.4,1.8-2.2,3.3-2.2h0.4v3.7c-1.2,0.1-2,0.4-2.6,1s-0.8,1.4-0.8,2.6
				v9.2h-3.9V290.6z M191.9,288.2L191.9,288.2L191.9,288.2z M189.6,306.6L189.6,306.6L189.6,306.6z"/>
		</g>
		<g>
			<path id="_x31_1" class="st19" d="M198.8,306.6v-21.4h3.8v21.4H198.8z M200.7,283.4L200.7,283.4L200.7,283.4z M200.7,306.6
				L200.7,306.6L200.7,306.6z"/>
		</g>
		<g>
			<path id="_x31_2" class="st19" d="M207.8,290.6h3.8v16h-3.8V290.6z M207.8,285.3h3.8v3.5h-3.8V285.3z M209.7,306.6L209.7,306.6
				L209.7,306.6z"/>
		</g>
		<g>
			<path id="_x31_3" class="st19" d="M216.4,307.5h4.4c0.9,1.2,2.2,1.9,3.8,1.9c1.4,0,2.5-0.5,3.4-1.6c0.9-1,1.4-2.2,1.4-3.4
				c-1.3,1.8-3.1,2.6-5.3,2.6c-2,0-3.8-0.8-5.5-2.4c-1.6-1.6-2.5-3.7-2.5-6.2c0-2.3,0.8-4.3,2.4-5.9s3.5-2.5,5.7-2.5
				c2.3,0,4,0.9,5.1,2.6v-2h4v12.9c0,2.6-0.7,4.8-2.3,6.7c-1.5,1.8-3.7,2.7-6.5,2.7C220.7,312.9,218,311.1,216.4,307.5z M220,298.5
				c0,1.3,0.4,2.4,1.3,3.5c0.9,1,2,1.6,3.4,1.6c1.1,0,2.1-0.5,3.1-1.4c0.9-0.9,1.4-2.1,1.4-3.5c0-1.5-0.4-2.7-1.3-3.7
				s-2-1.4-3.3-1.4s-2.4,0.5-3.2,1.4C220.4,296,220,297.1,220,298.5z M224.4,288.2L224.4,288.2L224.4,288.2z"/>
		</g>
		<g>
			<path id="_x31_4" class="st19" d="M237.9,290.6h3.8v16h-3.8V290.6z M237.9,285.3h3.8v3.5h-3.8V285.3z M239.8,306.6L239.8,306.6
				L239.8,306.6z"/>
		</g>
		<rect x="8.6" y="269.3" class="st20" width="233.9" height="4"/>
		<g>
			<path class="st19" d="M12.2,371l9-21.4h2.4l9,21.4h-2.4l-3.1-7.3l0,0h-9.7l0,0l-3.1,7.3H12.2z M18.3,361.8L18.3,361.8h8.1l0,0
				l-4-9.8l0,0L18.3,361.8z M22.3,347.9L22.3,347.9L22.3,347.9z M31.1,371L31.1,371L31.1,371z M11.8,349.2L11.8,349.2L11.8,349.2z"
				/>
		</g>
		<g>
			<path id="_x31__1_" class="st19" d="M48.4,371.4h2.1c0.4,1.2,1.1,2.2,2.2,2.9s2.3,1.1,3.7,1.1c1.6,0,3-0.5,4.1-1.5
				s1.6-2.5,1.6-4.4V368c-0.6,1-1.4,1.8-2.5,2.4s-2.4,0.9-3.8,0.9c-2.2,0-4.2-0.8-5.8-2.4s-2.4-3.5-2.4-5.8s0.8-4.3,2.4-5.9
				c1.6-1.6,3.5-2.5,5.8-2.5c2.7,0,4.8,1.1,6.3,3.3v-2.9h2v13.5c0,3.2-0.8,5.4-2.3,6.6c-1.6,1.3-3.4,1.9-5.4,1.9s-3.8-0.6-5.2-1.7
				C49.6,374.4,48.7,373.1,48.4,371.4z M49.7,363.2c0,1.8,0.6,3.3,1.8,4.5s2.7,1.8,4.4,1.8c1.8,0,3.2-0.6,4.5-1.8
				c1.2-1.2,1.9-2.7,1.9-4.5c0-2-0.6-3.5-1.9-4.7c-1.2-1.2-2.7-1.8-4.5-1.8c-1.6,0-3.1,0.6-4.3,1.8
				C50.3,359.7,49.7,361.3,49.7,363.2z M56,352.6L56,352.6L56,352.6z"/>
		</g>
		<g>
			<path id="_x32__1_" class="st19" d="M82.6,363.8L82.6,363.8c0,1.4,0.6,2.7,1.8,3.9c1.2,1.2,2.7,1.8,4.4,1.8c0.9,0,1.9-0.3,3-0.9
				s2-1.6,2.5-2.9h2.2c-0.7,1.8-1.8,3.2-3.2,4.2c-1.4,1-2.9,1.4-4.5,1.4c-2.4,0-4.3-0.8-5.9-2.5c-1.6-1.7-2.4-3.6-2.4-5.8
				c0-2.2,0.8-4.2,2.3-5.9c1.5-1.6,3.5-2.5,6-2.5c2.2,0,4.1,0.8,5.7,2.4s2.4,3.6,2.4,6v0.6H82.6L82.6,363.8L82.6,363.8z M82.7,362
				H95l0,0c-0.3-1.7-1-3-2.2-4s-2.5-1.4-3.9-1.4c-1.6,0-3.1,0.5-4.3,1.6C83.4,359.4,82.7,360.6,82.7,362z M89,352.6L89,352.6
				L89,352.6z M90.5,371L90.5,371L90.5,371z"/>
		</g>
		<g>
			<path id="_x33__1_" class="st19" d="M113.5,371v-15.8h2v2.1c1.2-1.6,2.8-2.5,4.9-2.5c2,0,3.6,0.6,4.9,1.9
				c1.3,1.2,1.9,3.1,1.9,5.7v8.6h-2v-8.6c0-1.9-0.5-3.3-1.3-4.3c-0.9-1-2.1-1.5-3.5-1.5s-2.5,0.5-3.5,1.4c-0.9,0.9-1.4,2.4-1.4,4.4
				v8.6L113.5,371L113.5,371z M120.4,352.6L120.4,352.6L120.4,352.6z M120.4,371L120.4,371L120.4,371z"/>
		</g>
		<g>
			<path id="_x34__1_" class="st19" d="M146.5,349.6h2v5.6h3.9v1.8h-3.9v14h-2v-14h-3.3v-1.8h3.3V349.6z M147.6,371L147.6,371
				L147.6,371z"/>
		</g>
		<g>
			<path id="_x35__1_" class="st19" d="M167.9,371v-21.4h2V371H167.9z M168.9,347.3L168.9,347.3L168.9,347.3z M168.9,371L168.9,371
				L168.9,371z"/>
		</g>
		<g>
			<path id="_x36__1_" class="st19" d="M187.1,355.2h2V371h-2V355.2z M187.1,349.6h2v3.6h-2V349.6z M188.1,371L188.1,371L188.1,371z
				"/>
		</g>
		<g>
			<path id="_x37__1_" class="st19" d="M206.3,371.4h2.1c0.4,1.2,1.1,2.2,2.2,2.9c1.1,0.7,2.3,1.1,3.7,1.1c1.6,0,3-0.5,4.1-1.5
				s1.6-2.5,1.6-4.4V368c-0.6,1-1.4,1.8-2.5,2.4s-2.4,0.9-3.8,0.9c-2.2,0-4.2-0.8-5.8-2.4c-1.6-1.6-2.4-3.5-2.4-5.8s0.8-4.3,2.4-5.9
				s3.5-2.5,5.8-2.5c2.7,0,4.8,1.1,6.3,3.3v-2.9h2v13.5c0,3.2-0.8,5.4-2.3,6.6c-1.6,1.3-3.4,1.9-5.4,1.9s-3.8-0.6-5.2-1.7
				C207.5,374.4,206.6,373.1,206.3,371.4z M207.6,363.2c0,1.8,0.6,3.3,1.8,4.5c1.2,1.2,2.7,1.8,4.4,1.8c1.8,0,3.2-0.6,4.5-1.8
				c1.2-1.2,1.9-2.7,1.9-4.5c0-2-0.6-3.5-1.9-4.7c-1.2-1.2-2.7-1.8-4.5-1.8c-1.6,0-3.1,0.6-4.3,1.8
				C208.2,359.7,207.6,361.3,207.6,363.2z M214,352.6L214,352.6L214,352.6z"/>
		</g>
		<g>
			<path id="_x38__1_" class="st19" d="M239.3,355.2h2V371h-2V355.2z M239.3,349.6h2v3.6h-2V349.6z M240.3,371L240.3,371L240.3,371z
				"/>
		</g>
		<g>
			<path class="st19" d="M12.4,340.7v-21.4h6.2c3.8,0,6.7,1.1,8.8,3.2s3.1,4.6,3.1,7.6c0,2.7-1,5.2-3.1,7.3c-2,2.2-5.2,3.3-9.4,3.3
				H12.4z M14.6,338.8h3.3c4,0,6.7-0.9,8.3-2.7c1.6-1.8,2.3-3.8,2.3-6c0-2.6-0.9-4.6-2.6-6.3c-1.7-1.7-4.3-2.6-7.9-2.6h-3.5
				L14.6,338.8L14.6,338.8z M20.2,317.6L20.2,317.6L20.2,317.6z M10.3,319L10.3,319L10.3,319z"/>
		</g>
		<g>
			<path id="_x31__2_" class="st19" d="M49.6,325v15.8h-2V338c-1.6,2.1-3.7,3.1-6.2,3.1c-2.4,0-4.5-0.8-6.1-2.4s-2.4-3.6-2.4-5.9
				c0-2.2,0.8-4.2,2.3-5.8c1.6-1.6,3.6-2.4,6.1-2.4c2.7,0,4.7,1,6.2,3.1V325H49.6z M41.4,326.4c-1.8,0-3.3,0.6-4.6,1.8
				c-1.2,1.2-1.9,2.7-1.9,4.6c0,2,0.6,3.6,1.8,4.8c1.2,1.2,2.7,1.8,4.5,1.8s3.3-0.6,4.6-1.9c1.2-1.3,1.8-2.8,1.8-4.6
				s-0.6-3.3-1.8-4.6S43.2,326.4,41.4,326.4z M41.5,322.3L41.5,322.3L41.5,322.3z M48,340.7L48,340.7L48,340.7z"/>
		</g>
		<polygon id="_x32__2_" class="st19" points="59.5,338.2 59.5,338.2 65.2,325 67.4,325 60.6,340.7 58.4,340.7 51.7,325 53.8,325 		
			"/>
		<g>
			<path id="_x33__2_" class="st19" d="M69.2,340.7v-21.4h2v21.4H69.2z M70.3,317.1L70.3,317.1L70.3,317.1z M70.3,340.7L70.3,340.7
				L70.3,340.7z"/>
		</g>
		<g>
			<path id="_x34__2_" class="st19" d="M91,325v15.8h-2V338c-1.6,2.1-3.7,3.1-6.2,3.1s-4.5-0.8-6.1-2.4s-2.4-3.6-2.4-5.9
				c0-2.2,0.8-4.2,2.4-5.8s3.6-2.4,6.1-2.4c2.7,0,4.7,1,6.2,3.1V325H91z M82.8,326.4c-1.8,0-3.3,0.6-4.5,1.8
				c-1.2,1.2-1.9,2.7-1.9,4.6c0,2,0.6,3.6,1.8,4.8c1.2,1.2,2.7,1.8,4.5,1.8s3.4-0.6,4.6-1.9s1.8-2.8,1.8-4.6s-0.6-3.3-1.8-4.6
				C86.1,327,84.6,326.4,82.8,326.4z M83,322.3L83,322.3L83,322.3z M89.4,340.7L89.4,340.7L89.4,340.7z"/>
		</g>
		<g>
			<path id="_x35__2_" class="st19" d="M96.6,319.3h2v5.6h3.8v1.8h-3.8v13.9h-2v-13.9h-3.3V325h3.3V319.3z M97.6,340.7L97.6,340.7
				L97.6,340.7z"/>
		</g>
		<polygon id="_x36__2_" class="st19" points="110.9,340.7 118.1,329.8 118.1,329.8 111.3,319.3 113.7,319.3 119.4,327.9 
			119.4,327.9 125,319.3 127.5,319.3 120.6,329.8 120.6,329.8 127.9,340.7 125.5,340.7 119.4,331.6 119.4,331.6 113.4,340.7 		"/>
		<g>
			<path id="_x37__2_" class="st19" d="M130,325h2v15.8h-2V325z M130,319.3h2v3.6h-2V319.3z M131,340.7L131,340.7L131,340.7z"/>
		</g>
		<g>
			<path id="_x38__2_" class="st19" d="M134.2,340.7V339l8.8-12.2l0,0h-8.5V325h11v1.8l-8.7,12.2l0,0h9.2v1.8L134.2,340.7
				L134.2,340.7z M140,322.3L140,322.3L140,322.3z M133.9,324.6L133.9,324.6L133.9,324.6z"/>
		</g>
		<path id="_x39__1_" class="st19" d="M148,325h2v1.8c0.9-1.5,2.4-2.3,4.3-2.3c2.4,0,4.1,1,5.3,2.9c1-2,2.8-2.9,5.2-2.9
			c2,0,3.5,0.6,4.7,1.8c1.1,1.2,1.7,2.8,1.7,4.8v9.6h-2v-8.9c0-1.8-0.3-3.1-1.1-4.1c-0.7-0.9-1.8-1.4-3.1-1.4
			c-1.4,0-2.5,0.5-3.2,1.4c-0.8,0.9-1.1,2.1-1.1,3.7v9.3h-2v-9.2c0-1.6-0.3-2.8-1-3.8c-0.7-0.9-1.8-1.4-3.2-1.4
			c-1.5,0-2.6,0.5-3.2,1.5c-0.7,1-1,2.2-1,3.8v9.1h-2V325H148z"/>
		<g>
			<path id="_x31_0_1_" class="st19" d="M191.1,325v15.8h-2V338c-1.6,2.1-3.7,3.1-6.2,3.1c-2.4,0-4.5-0.8-6.1-2.4s-2.4-3.6-2.4-5.9
				c0-2.2,0.8-4.2,2.4-5.8s3.6-2.4,6.1-2.4c2.7,0,4.7,1,6.2,3.1V325H191.1z M182.9,326.4c-1.8,0-3.3,0.6-4.5,1.8s-1.9,2.7-1.9,4.6
				c0,2,0.6,3.6,1.8,4.8c1.2,1.2,2.7,1.8,4.5,1.8s3.4-0.6,4.6-1.9s1.8-2.8,1.8-4.6s-0.6-3.3-1.8-4.6S184.6,326.4,182.9,326.4z
				 M183,322.3L183,322.3L183,322.3z M189.4,340.7L189.4,340.7L189.4,340.7z"/>
		</g>
		<g>
			<path id="_x31_1_1_" class="st19" d="M196.6,319.3h2v5.6h3.8v1.8h-3.8v13.9h-2v-13.9h-3.3V325h3.3V319.3z M197.7,340.7
				L197.7,340.7L197.7,340.7z"/>
		</g>
		<g>
			<path id="_x31_2_1_" class="st19" d="M204.5,340.7v-21.4h2v21.4H204.5z M205.5,317.1L205.5,317.1L205.5,317.1z M205.5,340.7
				L205.5,340.7L205.5,340.7z"/>
		</g>
		<g>
			<path id="_x31_3_1_" class="st19" d="M226.3,325v15.8h-2V338c-1.6,2.1-3.7,3.1-6.2,3.1s-4.5-0.8-6.1-2.4s-2.4-3.6-2.4-5.9
				c0-2.2,0.8-4.2,2.4-5.8s3.6-2.4,6.1-2.4c2.7,0,4.7,1,6.2,3.1V325H226.3z M218.1,326.4c-1.8,0-3.3,0.6-4.6,1.8
				c-1.2,1.2-1.9,2.7-1.9,4.6c0,2,0.6,3.6,1.8,4.8c1.2,1.2,2.7,1.8,4.5,1.8s3.4-0.6,4.6-1.9s1.8-2.8,1.8-4.6s-0.6-3.3-1.8-4.6
				S219.9,326.4,218.1,326.4z M218.2,322.3L218.2,322.3L218.2,322.3z M224.7,340.7L224.7,340.7L224.7,340.7z"/>
		</g>
		<g>
			<path id="_x31_4_1_" class="st19" d="M230,340.7V325h2v2.3c0.5-1,1.1-1.7,1.8-2.1c0.7-0.4,1.6-0.6,2.7-0.6l0,0v2.1l0,0
				c-1.4,0.1-2.6,0.5-3.3,1.4c-0.8,0.9-1.2,2-1.2,3.4v9.2L230,340.7L230,340.7z M233.2,322.3L233.2,322.3L233.2,322.3z M231,340.7
				L231,340.7L231,340.7z"/>
		</g>
		<g>
			<path id="_x31_5" class="st19" d="M238.6,325h2v15.8h-2V325z M238.6,319.3h2v3.6h-2V319.3z M239.7,340.7L239.7,340.7L239.7,340.7
				z"/>
		</g>
	</g>
</g>
</svg>
